<svg width="378" height="76" viewBox="0 0 378 76" fill="none" xmlns="http://www.w3.org/2000/svg">
<path d="M0.386364 74V4.18182H13.0341V63.3977H43.7841V74H0.386364ZM87.5909 51.9773V21.6364H99.9318V74H87.9659V64.6932H87.4205C86.2386 67.625 84.2955 70.0227 81.5909 71.8864C78.9091 73.75 75.6023 74.6818 71.6705 74.6818C68.2386 74.6818 65.2045 73.9205 62.5682 72.3977C59.9545 70.8523 57.9091 68.6136 56.4318 65.6818C54.9545 62.7273 54.2159 59.1591 54.2159 54.9773V21.6364H66.5568V53.0682C66.5568 56.3864 67.4659 59.0227 69.2841 60.9773C71.1023 62.9318 73.4886 63.9091 76.4432 63.9091C78.2614 63.9091 80.0227 63.4659 81.7273 62.5795C83.4318 61.6932 84.8295 60.375 85.9205 58.625C87.0341 56.8523 87.5909 54.6364 87.5909 51.9773ZM135.463 75.0227C130.236 75.0227 125.747 73.875 121.997 71.5795C118.27 69.2841 115.395 66.1136 113.372 62.0682C111.372 58 110.372 53.3182 110.372 48.0227C110.372 42.7045 111.395 38.0114 113.44 33.9432C115.486 29.8523 118.372 26.6705 122.099 24.3977C125.849 22.1023 130.281 20.9545 135.395 20.9545C139.645 20.9545 143.406 21.7386 146.679 23.3068C149.974 24.8523 152.599 27.0455 154.554 29.8864C156.509 32.7045 157.622 36 157.895 39.7727H146.099C145.622 37.25 144.486 35.1477 142.69 33.4659C140.918 31.7614 138.543 30.9091 135.565 30.9091C133.043 30.9091 130.827 31.5909 128.918 32.9545C127.009 34.2955 125.52 36.2273 124.452 38.75C123.406 41.2727 122.884 44.2955 122.884 47.8182C122.884 51.3864 123.406 54.4545 124.452 57.0227C125.497 59.5682 126.963 61.5341 128.849 62.9205C130.759 64.2841 132.997 64.9659 135.565 64.9659C137.384 64.9659 139.009 64.625 140.44 63.9432C141.895 63.2386 143.111 62.2273 144.088 60.9091C145.065 59.5909 145.736 57.9886 146.099 56.1023H157.895C157.599 59.8068 156.509 63.0909 154.622 65.9545C152.736 68.7955 150.168 71.0227 146.918 72.6364C143.668 74.2273 139.849 75.0227 135.463 75.0227ZM168.028 74V21.6364H180.369V74H168.028ZM174.233 14.2045C172.278 14.2045 170.597 13.5568 169.188 12.2614C167.778 10.9432 167.074 9.36363 167.074 7.52272C167.074 5.65909 167.778 4.07954 169.188 2.78409C170.597 1.46591 172.278 0.806816 174.233 0.806816C176.21 0.806816 177.892 1.46591 179.278 2.78409C180.688 4.07954 181.392 5.65909 181.392 7.52272C181.392 9.36363 180.688 10.9432 179.278 12.2614C177.892 13.5568 176.21 14.2045 174.233 14.2045ZM205.401 4.18182V74H193.06V4.18182H205.401ZM251.466 51.9773V21.6364H263.807V74H251.841V64.6932H251.295C250.114 67.625 248.17 70.0227 245.466 71.8864C242.784 73.75 239.477 74.6818 235.545 74.6818C232.114 74.6818 229.08 73.9205 226.443 72.3977C223.83 70.8523 221.784 68.6136 220.307 65.6818C218.83 62.7273 218.091 59.1591 218.091 54.9773V21.6364H230.432V53.0682C230.432 56.3864 231.341 59.0227 233.159 60.9773C234.977 62.9318 237.364 63.9091 240.318 63.9091C242.136 63.9091 243.898 63.4659 245.602 62.5795C247.307 61.6932 248.705 60.375 249.795 58.625C250.909 56.8523 251.466 54.6364 251.466 51.9773ZM288.838 43.3182V74H276.497V21.6364H288.293V30.5341H288.906C290.111 27.6023 292.031 25.2727 294.668 23.5455C297.327 21.8182 300.611 20.9545 304.52 20.9545C308.134 20.9545 311.281 21.7273 313.963 23.2727C316.668 24.8182 318.759 27.0568 320.236 29.9886C321.736 32.9205 322.474 36.4773 322.452 40.6591V74H310.111V42.5682C310.111 39.0682 309.202 36.3295 307.384 34.3523C305.588 32.375 303.099 31.3864 299.918 31.3864C297.759 31.3864 295.838 31.8636 294.156 32.8182C292.497 33.75 291.19 35.1023 290.236 36.875C289.304 38.6477 288.838 40.7955 288.838 43.3182ZM350.065 75.0568C346.747 75.0568 343.759 74.4659 341.099 73.2841C338.463 72.0795 336.372 70.3068 334.827 67.9659C333.304 65.625 332.543 62.7386 332.543 59.3068C332.543 56.3523 333.088 53.9091 334.179 51.9773C335.27 50.0455 336.759 48.5 338.645 47.3409C340.531 46.1818 342.656 45.3068 345.02 44.7159C347.406 44.1023 349.872 43.6591 352.418 43.3864C355.486 43.0682 357.974 42.7841 359.884 42.5341C361.793 42.2614 363.179 41.8523 364.043 41.3068C364.929 40.7386 365.372 39.8636 365.372 38.6818V38.4773C365.372 35.9091 364.611 33.9205 363.088 32.5114C361.565 31.1023 359.372 30.3977 356.509 30.3977C353.486 30.3977 351.088 31.0568 349.315 32.375C347.565 33.6932 346.384 35.25 345.77 37.0455L334.247 35.4091C335.156 32.2273 336.656 29.5682 338.747 27.4318C340.838 25.2727 343.395 23.6591 346.418 22.5909C349.44 21.5 352.781 20.9545 356.44 20.9545C358.963 20.9545 361.474 21.25 363.974 21.8409C366.474 22.4318 368.759 23.4091 370.827 24.7727C372.895 26.1136 374.554 27.9432 375.804 30.2614C377.077 32.5795 377.713 35.4773 377.713 38.9545V74H365.849V66.8068H365.44C364.69 68.2614 363.634 69.625 362.27 70.8977C360.929 72.1477 359.236 73.1591 357.19 73.9318C355.168 74.6818 352.793 75.0568 350.065 75.0568ZM353.27 65.9886C355.747 65.9886 357.895 65.5 359.713 64.5227C361.531 63.5227 362.929 62.2045 363.906 60.5682C364.906 58.9318 365.406 57.1477 365.406 55.2159V49.0455C365.02 49.3636 364.361 49.6591 363.429 49.9318C362.52 50.2045 361.497 50.4432 360.361 50.6477C359.224 50.8523 358.099 51.0341 356.986 51.1932C355.872 51.3523 354.906 51.4886 354.088 51.6023C352.247 51.8523 350.599 52.2614 349.145 52.8295C347.69 53.3977 346.543 54.1932 345.702 55.2159C344.861 56.2159 344.44 57.5114 344.44 59.1023C344.44 61.375 345.27 63.0909 346.929 64.25C348.588 65.4091 350.702 65.9886 353.27 65.9886Z" fill="white"/>
</svg>
